<svg width="19" height="18" viewBox="0 0 19 18" fill="none" xmlns="http://www.w3.org/2000/svg">
<path id="Vector" d="M5.92355 10.581C6.17747 10.298 6.4284 10.0149 6.68231 9.73752C8.45076 7.81844 10.27 5.94465 12.2177 4.18407C13.2065 3.29247 14.2191 2.42633 15.3513 1.70172C15.8771 1.36489 16.4297 1.07901 17.069 0.985604C17.523 0.917672 18.004 1.16676 18.0906 1.56586C18.1205 1.69606 18.0757 1.87438 17.998 1.99043C17.8427 2.21687 17.6545 2.42916 17.4514 2.62164C16.6836 3.35474 15.895 4.06802 15.1362 4.81245C13.8457 6.07485 12.6927 7.44481 11.6352 8.88837C10.5299 10.397 9.55605 11.9793 8.68078 13.6181C8.03554 14.8296 7.45302 16.0694 6.91532 17.3261C6.84362 17.4959 6.7779 17.6714 6.56581 17.7394C6.3328 17.813 6.13564 17.7535 6.00719 17.5497C5.70847 17.077 5.41572 16.5987 5.11998 16.126C4.35823 14.9089 3.54869 13.72 2.61368 12.6133C1.95051 11.8264 1.21564 11.1047 0.444932 10.414C0.379212 10.3546 0.313492 10.298 0.25076 10.2385C-0.0897864 9.92717 -0.0599139 9.42617 0.298556 9.12613C0.570396 8.89969 0.890032 8.84591 1.22759 8.8629C1.90271 8.89686 2.53899 9.08651 3.14839 9.34408C4.02067 9.71205 4.87801 10.1111 5.73834 10.4961C5.80107 10.5216 5.85783 10.5499 5.92355 10.581Z" fill="#EF811B"/>
</svg>
