<svg
  width="30"
  height="30"
  viewBox="0 0 30 30"
  fill="none"
  xmlns="http://www.w3.org/2000/svg"
>
  <path
    d="M24 30.0002H6C2.688 30.0002 0 27.3122 0 24.0002V6.00024C0 2.68824 2.688 0.000244141 6 0.000244141H24C27.312 0.000244141 30 2.68824 30 6.00024V24.0002C30 27.3122 27.318 30.0002 24 30.0002Z"
    fill="#ffffff4d"></path>

  <path
    d="M5.052 4.71033C8.502 8.15433 11.934 11.5863 15.354 15.0063C11.946 18.4083 8.514 21.8343 5.058 25.2843C4.722 24.9123 4.506 24.4443 4.506 23.9043C4.5 21.7803 4.5 19.6563 4.5 17.5323C4.5 13.7643 4.5 10.0023 4.5 6.23433C4.506 5.64633 4.686 5.13633 5.052 4.71033Z"
    fill="#1C1D2B"></path>
  <path
    d="M6.06 25.9442C9.45 22.5602 12.828 19.1882 16.194 15.8282C17.37 17.0102 18.576 18.2162 19.794 19.4402C19.23 19.7462 18.648 20.0582 18.066 20.3702C16.344 21.2942 14.622 22.2122 12.9 23.1302C11.232 24.0242 9.564 24.9182 7.896 25.8122C7.296 26.1362 6.654 26.1782 6.06 25.9442Z"
    fill="#1C1D2B"></path>
  <path
    d="M6.06 4.03227C6.702 3.82227 7.32 3.87627 7.914 4.19427C10.296 5.46627 12.672 6.74427 15.054 8.01627C16.584 8.83827 18.114 9.65427 19.644 10.4763C19.698 10.5063 19.746 10.5363 19.782 10.5543C18.576 11.7603 17.376 12.9603 16.188 14.1423C12.834 10.8003 9.456 7.42227 6.06 4.03227Z"
    fill="#1C1D2B"></path>
  <path
    d="M16.98 14.9582C17.844 14.1002 18.702 13.2482 19.56 12.3962C19.944 12.0122 20.334 11.6342 20.712 11.2442C20.808 11.1482 20.886 11.1362 21.006 11.2022C22.116 11.8022 23.232 12.3842 24.336 13.0022C25.128 13.4402 25.512 14.1542 25.5 15.0422C25.488 15.9482 25.056 16.6262 24.252 17.0582C23.184 17.6342 22.104 18.2102 21.036 18.7862C20.934 18.8402 20.85 18.8942 20.742 18.7802C19.5 17.5262 18.258 16.2782 17.01 15.0302C17.004 15.0182 17.004 15.0062 16.98 14.9582Z"
    fill="#1C1D2B"></path>
</svg>