<svg width="621" height="132" viewBox="0 0 621 132" fill="none" xmlns="http://www.w3.org/2000/svg">
<path d="M95.36 1H3.64C2.18 1 1 2.18 1 3.64V127.35C1 128.8 2.18 129.99 3.64 130H95.35C96.81 130 97.99 128.82 97.99 127.36V102.58C97.99 101.13 96.81 99.94 95.35 99.94H42.86C40.85 99.94 39.22 98.31 39.22 96.3V81.35C39.22 79.34 40.85 77.71 42.86 77.71H84.11C85.57 77.71 86.75 76.53 86.75 75.07V52.49C86.75 51.04 85.57 49.85 84.11 49.85H42.86C40.85 49.85 39.22 48.22 39.22 46.21V33.64C39.22 31.63 40.85 30 42.86 30H95.35C96.81 30 97.99 28.82 97.99 27.36V3.64C98 2.18 96.82 1 95.36 1Z" fill="white" fill-opacity="0.2" stroke="#230C0C" stroke-opacity="0.5" stroke-width="2"/>
<path d="M161.37 1H127.64C126.18 1 125 2.18 125 3.64V127.37C125 128.82 126.18 130.01 127.64 130.01H161.35C162.81 130.01 163.99 128.83 163.99 127.37V3.64C164 2.18 162.81 1 161.37 1Z" fill="white" fill-opacity="0.2" stroke="#230C0C" stroke-opacity="0.5" stroke-width="2"/>
<path d="M275.28 54.41C268.97 51.98 258.26 49.16 243.14 45.97C237.65 44.81 233.86 43.56 231.86 42.21C229.81 40.82 228.78 38.86 228.78 36.36C228.78 33.59 229.91 31.47 232.17 30.07C234.39 28.69 237.67 28.03 241.94 28.03C251.31 28.03 257.91 31.56 261.61 38.66C262.19 39.77 263.45 40.31 264.62 39.95L290.92 32.01C292.42 31.55 293.18 29.87 292.51 28.46C288.19 19.3 281.95 12.45 273.78 7.88C265.59 3.3 255.46 1 243.34 1C226.44 1 213.57 4.92 204.63 12.72C195.69 20.51 191.24 30.26 191.24 42.01C191.24 51.13 194.34 59.06 200.56 65.8C203.64 69.14 208.69 72.2 215.77 74.95C222.85 77.7 231.91 80.14 242.97 82.26C248.77 83.42 252.89 84.77 255.22 86.34C257.6 87.94 258.82 90.2 258.82 93.08C258.82 94.45 258.5 95.67 257.83 96.73C257.17 97.79 256.18 98.65 254.9 99.33C252.36 100.68 248.61 101.33 243.71 101.33C237.88 101.33 233.03 100.24 229.19 98.04C225.34 95.83 222.52 92.51 220.74 88.1C220.29 86.97 219.12 86.33 217.93 86.54C207.91 88.34 197.89 90.14 187.87 91.94C186.33 92.22 185.39 93.81 185.86 95.3C189.79 106.89 196.36 115.56 205.58 121.33C214.81 127.11 226.73 130.02 241.38 130.02C258.16 130.02 271.66 126.07 281.91 118.23C292.17 110.39 297.28 100.19 297.28 87.6C297.28 79.61 295.17 72.72 290.99 66.86C286.77 60.96 281.55 56.83 275.28 54.41Z" fill="white" fill-opacity="0.2" stroke="#230C0C" stroke-opacity="0.5" stroke-width="2"/>
<path d="M430.38 1.02H404.15C402.97 1.02 401.94 1.8 401.61 2.92L381.19 73.6C380.2 77.03 375.35 77.14 374.25 73.72C374.13 73.35 374.01 72.99 373.89 72.63C373.77 72.27 373.65 71.9 373.53 71.53V71.52V71.51L353.6 2.9C353.27 1.78 352.23 1 351.06 1H315.64C313.85 1 312.58 2.74 313.13 4.44L353.32 128.18C353.66 129.25 354.69 129.99 355.83 129.99H391.94C393.09 129.99 394.12 129.24 394.46 128.13L432.88 4.4C433.41 2.69 432.14 0.99 430.38 1.02Z" fill="white" fill-opacity="0.2" stroke="#230C0C" stroke-opacity="0.5" stroke-width="2"/>
<path d="M493.36 1H459.65C458.18 1 457 2.18 457 3.64V127.37C457 128.82 458.18 130.01 459.64 130.01H493.35C494.81 130.01 495.99 128.83 495.99 127.37V3.64C496 2.18 494.82 1 493.36 1Z" fill="white" fill-opacity="0.2" stroke="#230C0C" stroke-opacity="0.5" stroke-width="2"/>
<path d="M617.39 99.09H572.49C570.48 99.09 568.86 97.46 568.86 95.45V3.64C568.86 2.18 567.68 1 566.23 1H532.64C531.18 1 530 2.18 530 3.64V127.37C530 128.83 531.18 130.01 532.63 130.01H617.37C618.82 130.01 620 128.83 620 127.37V101.73C620 100.27 618.82 99.09 617.39 99.09Z" fill="white" fill-opacity="0.2" stroke="#230C0C" stroke-opacity="0.5" stroke-width="2"/>
<path d="M95.36 1H3.64C2.18 1 1 2.18 1 3.64V127.35C1 128.8 2.18 129.99 3.64 130H95.35C96.81 130 97.99 128.82 97.99 127.36V102.58C97.99 101.13 96.81 99.94 95.35 99.94H42.86C40.85 99.94 39.22 98.31 39.22 96.3V81.35C39.22 79.34 40.85 77.71 42.86 77.71H84.11C85.57 77.71 86.75 76.53 86.75 75.07V52.49C86.75 51.04 85.57 49.85 84.11 49.85H42.86C40.85 49.85 39.22 48.22 39.22 46.21V33.64C39.22 31.63 40.85 30 42.86 30H95.35C96.81 30 97.99 28.82 97.99 27.36V3.64C98 2.18 96.82 1 95.36 1Z" stroke="url(#paint0_linear_2574_10342)" stroke-opacity="0.3" stroke-width="2"/>
<path d="M161.37 1H127.64C126.18 1 125 2.18 125 3.64V127.37C125 128.82 126.18 130.01 127.64 130.01H161.35C162.81 130.01 163.99 128.83 163.99 127.37V3.64C164 2.18 162.81 1 161.37 1Z" stroke="url(#paint1_linear_2574_10342)" stroke-opacity="0.3" stroke-width="2"/>
<path d="M275.28 54.41C268.97 51.98 258.26 49.16 243.14 45.97C237.65 44.81 233.86 43.56 231.86 42.21C229.81 40.82 228.78 38.86 228.78 36.36C228.78 33.59 229.91 31.47 232.17 30.07C234.39 28.69 237.67 28.03 241.94 28.03C251.31 28.03 257.91 31.56 261.61 38.66C262.19 39.77 263.45 40.31 264.62 39.95L290.92 32.01C292.42 31.55 293.18 29.87 292.51 28.46C288.19 19.3 281.95 12.45 273.78 7.88C265.59 3.3 255.46 1 243.34 1C226.44 1 213.57 4.92 204.63 12.72C195.69 20.51 191.24 30.26 191.24 42.01C191.24 51.13 194.34 59.06 200.56 65.8C203.64 69.14 208.69 72.2 215.77 74.95C222.85 77.7 231.91 80.14 242.97 82.26C248.77 83.42 252.89 84.77 255.22 86.34C257.6 87.94 258.82 90.2 258.82 93.08C258.82 94.45 258.5 95.67 257.83 96.73C257.17 97.79 256.18 98.65 254.9 99.33C252.36 100.68 248.61 101.33 243.71 101.33C237.88 101.33 233.03 100.24 229.19 98.04C225.34 95.83 222.52 92.51 220.74 88.1C220.29 86.97 219.12 86.33 217.93 86.54C207.91 88.34 197.89 90.14 187.87 91.94C186.33 92.22 185.39 93.81 185.86 95.3C189.79 106.89 196.36 115.56 205.58 121.33C214.81 127.11 226.73 130.02 241.38 130.02C258.16 130.02 271.66 126.07 281.91 118.23C292.17 110.39 297.28 100.19 297.28 87.6C297.28 79.61 295.17 72.72 290.99 66.86C286.77 60.96 281.55 56.83 275.28 54.41Z" stroke="url(#paint2_linear_2574_10342)" stroke-opacity="0.3" stroke-width="2"/>
<path d="M430.38 1.02H404.15C402.97 1.02 401.94 1.8 401.61 2.92L381.19 73.6C380.2 77.03 375.35 77.14 374.25 73.72C374.13 73.35 374.01 72.99 373.89 72.63C373.77 72.27 373.65 71.9 373.53 71.53V71.52V71.51L353.6 2.9C353.27 1.78 352.23 1 351.06 1H315.64C313.85 1 312.58 2.74 313.13 4.44L353.32 128.18C353.66 129.25 354.69 129.99 355.83 129.99H391.94C393.09 129.99 394.12 129.24 394.46 128.13L432.88 4.4C433.41 2.69 432.14 0.99 430.38 1.02Z" stroke="url(#paint3_linear_2574_10342)" stroke-opacity="0.3" stroke-width="2"/>
<path d="M493.36 1H459.65C458.18 1 457 2.18 457 3.64V127.37C457 128.82 458.18 130.01 459.64 130.01H493.35C494.81 130.01 495.99 128.83 495.99 127.37V3.64C496 2.18 494.82 1 493.36 1Z" stroke="url(#paint4_linear_2574_10342)" stroke-opacity="0.3" stroke-width="2"/>
<path d="M617.39 99.09H572.49C570.48 99.09 568.86 97.46 568.86 95.45V3.64C568.86 2.18 567.68 1 566.23 1H532.64C531.18 1 530 2.18 530 3.64V127.37C530 128.83 531.18 130.01 532.63 130.01H617.37C618.82 130.01 620 128.83 620 127.37V101.73C620 100.27 618.82 99.09 617.39 99.09Z" stroke="url(#paint5_linear_2574_10342)" stroke-opacity="0.3" stroke-width="2"/>
<path d="M97.49 3.63657V3.64V27.36C97.49 28.5439 96.5339 29.5 95.35 29.5H42.86C40.5739 29.5 38.72 31.3539 38.72 33.64V46.21C38.72 48.4961 40.5739 50.35 42.86 50.35H84.11C85.2926 50.35 86.25 51.3149 86.25 52.49V75.07C86.25 76.2539 85.2939 77.21 84.11 77.21H42.86C40.5739 77.21 38.72 79.0639 38.72 81.35V96.3C38.72 98.5862 40.5739 100.44 42.86 100.44H95.35C96.5326 100.44 97.49 101.405 97.49 102.58V127.36C97.49 128.544 96.5339 129.5 95.35 129.5L3.64342 129.5C3.64273 129.5 3.64203 129.5 3.64134 129.5C2.45634 129.491 1.5 128.524 1.5 127.35V3.64C1.5 2.45614 2.45614 1.5 3.64 1.5H95.36C96.5445 1.5 97.4981 2.45605 97.49 3.63657Z" stroke="url(#paint6_linear_2574_10342)" stroke-opacity="0.7"/>
<path d="M163.49 3.63658V3.64V127.37C163.49 128.554 162.534 129.51 161.35 129.51H127.64C126.457 129.51 125.5 128.545 125.5 127.37V3.64C125.5 2.45614 126.456 1.5 127.64 1.5H161.37C162.535 1.5 163.498 2.45605 163.49 3.63658Z" stroke="url(#paint7_linear_2574_10342)" stroke-opacity="0.7"/>
<path d="M243.037 46.4592L243.036 46.4592C237.547 45.2994 233.669 44.0346 231.58 42.6244L231.579 42.6238C229.39 41.1395 228.28 39.0235 228.28 36.36C228.28 33.4284 229.49 31.142 231.907 29.6449C234.244 28.1924 237.635 27.53 241.94 27.53C251.455 27.53 258.249 31.1298 262.053 38.4284C262.525 39.3321 263.541 39.7588 264.473 39.4721L264.475 39.4713L290.773 31.532C290.774 31.5318 290.774 31.5317 290.774 31.5316C291.989 31.1583 292.594 29.8018 292.058 28.6746L292.058 28.6733C287.778 19.5996 281.607 12.8314 273.536 8.31637C265.439 3.78832 255.398 1.5 243.34 1.5C226.511 1.5 213.776 5.40371 204.959 13.0968L204.958 13.097C196.126 20.7928 191.74 30.4057 191.74 42.01C191.74 51.0039 194.792 58.813 200.927 65.4609L200.927 65.461C203.933 68.7203 208.902 71.746 215.951 74.4839C222.993 77.2192 232.021 79.6522 243.064 81.7689L243.068 81.7697C248.873 82.9308 253.08 84.2952 255.499 85.9252L243.037 46.4592ZM243.037 46.4592C258.154 49.6487 268.83 52.462 275.1 54.8765C281.272 57.2586 286.415 61.3238 290.583 67.1504C294.696 72.9174 296.78 79.7036 296.78 87.6C296.78 100.03 291.746 110.085 281.606 117.833L281.606 117.833C271.466 125.589 258.082 129.52 241.38 129.52C226.793 129.52 214.973 126.622 205.845 120.906L205.845 120.906C196.736 115.206 190.233 106.637 186.335 95.1448C185.958 93.9382 186.722 92.6568 187.959 92.4319L218.017 87.0324C218.976 86.863 219.914 87.3781 220.275 88.285L220.276 88.2871C222.095 92.7929 224.986 96.2036 228.941 98.4736L228.941 98.4738M243.037 46.4592L228.941 98.4738M228.941 98.4738C232.878 100.729 237.821 101.83 243.71 101.83C248.638 101.83 252.486 101.179 255.134 99.7716C256.474 99.0601 257.537 98.1455 258.253 96.9959C258.98 95.8455 259.32 94.5304 259.32 93.08C259.32 90.032 258.016 87.6173 255.499 85.9253L228.941 98.4738Z" stroke="url(#paint8_linear_2574_10342)" stroke-opacity="0.7"/>
<path d="M430.38 1.52007L430.388 1.51993C431.802 1.49583 432.833 2.8613 432.402 4.25173C432.402 4.25181 432.402 4.25189 432.402 4.25198L393.982 127.982L393.981 127.984C393.706 128.881 392.872 129.49 391.94 129.49H355.83C354.901 129.49 354.068 128.885 353.796 128.029L353.795 128.026L313.605 4.28609C313.605 4.286 313.605 4.28591 313.605 4.28582C313.16 2.91041 314.187 1.5 315.64 1.5H351.06C352.007 1.5 352.852 2.13325 353.12 3.04053C353.12 3.04079 353.12 3.04105 353.12 3.04132L373.03 71.5811V71.6091L373.054 71.6842C373.174 72.0539 373.294 72.4259 373.415 72.7881C373.535 73.1483 373.655 73.5063 373.774 73.874C375.029 77.7726 380.546 77.6329 381.67 73.7387L402.089 3.06132C402.089 3.06094 402.089 3.06056 402.089 3.06018C402.358 2.15201 403.193 1.52 404.15 1.52L430.38 1.52007Z" stroke="url(#paint9_linear_2574_10342)" stroke-opacity="0.7"/>
<path d="M495.49 3.63658V3.64V127.37C495.49 128.554 494.534 129.51 493.35 129.51H459.64C458.457 129.51 457.5 128.545 457.5 127.37V3.64C457.5 2.45737 458.455 1.5 459.65 1.5H493.36C494.545 1.5 495.498 2.45605 495.49 3.63658Z" stroke="url(#paint10_linear_2574_10342)" stroke-opacity="0.7"/>
<path d="M572.49 99.59H617.39C618.54 99.59 619.5 100.542 619.5 101.73V127.37C619.5 128.555 618.543 129.51 617.37 129.51H532.63C531.457 129.51 530.5 128.555 530.5 127.37V3.64C530.5 2.45615 531.456 1.5 532.64 1.5H566.23C567.403 1.5 568.36 2.45491 568.36 3.64V95.45C568.36 97.7344 570.202 99.59 572.49 99.59Z" stroke="url(#paint11_linear_2574_10342)" stroke-opacity="0.7"/>
<defs>
<linearGradient id="paint0_linear_2574_10342" x1="49.495" y1="1" x2="49.495" y2="130" gradientUnits="userSpaceOnUse">
<stop stop-color="white"/>
<stop offset="1" stop-color="white" stop-opacity="0"/>
</linearGradient>
<linearGradient id="paint1_linear_2574_10342" x1="144.495" y1="1" x2="144.495" y2="130.01" gradientUnits="userSpaceOnUse">
<stop stop-color="white"/>
<stop offset="1" stop-color="white" stop-opacity="0"/>
</linearGradient>
<linearGradient id="paint2_linear_2574_10342" x1="241.509" y1="1" x2="241.509" y2="130.02" gradientUnits="userSpaceOnUse">
<stop stop-color="white"/>
<stop offset="1" stop-color="white" stop-opacity="0"/>
</linearGradient>
<linearGradient id="paint3_linear_2574_10342" x1="373.001" y1="1" x2="373.001" y2="129.99" gradientUnits="userSpaceOnUse">
<stop stop-color="white"/>
<stop offset="1" stop-color="white" stop-opacity="0"/>
</linearGradient>
<linearGradient id="paint4_linear_2574_10342" x1="476.495" y1="1" x2="476.495" y2="130.01" gradientUnits="userSpaceOnUse">
<stop stop-color="white"/>
<stop offset="1" stop-color="white" stop-opacity="0"/>
</linearGradient>
<linearGradient id="paint5_linear_2574_10342" x1="575" y1="1" x2="575" y2="130.01" gradientUnits="userSpaceOnUse">
<stop stop-color="white"/>
<stop offset="1" stop-color="white" stop-opacity="0"/>
</linearGradient>
<linearGradient id="paint6_linear_2574_10342" x1="49.495" y1="1" x2="49.495" y2="130" gradientUnits="userSpaceOnUse">
<stop stop-color="white"/>
<stop offset="0.453125" stop-color="white" stop-opacity="0"/>
</linearGradient>
<linearGradient id="paint7_linear_2574_10342" x1="144.495" y1="1" x2="144.495" y2="130.01" gradientUnits="userSpaceOnUse">
<stop stop-color="white"/>
<stop offset="0.453125" stop-color="white" stop-opacity="0"/>
</linearGradient>
<linearGradient id="paint8_linear_2574_10342" x1="241.509" y1="1" x2="241.509" y2="130.02" gradientUnits="userSpaceOnUse">
<stop stop-color="white"/>
<stop offset="0.453125" stop-color="white" stop-opacity="0"/>
</linearGradient>
<linearGradient id="paint9_linear_2574_10342" x1="373.001" y1="1" x2="373.001" y2="129.99" gradientUnits="userSpaceOnUse">
<stop stop-color="white"/>
<stop offset="0.453125" stop-color="white" stop-opacity="0"/>
</linearGradient>
<linearGradient id="paint10_linear_2574_10342" x1="476.495" y1="1" x2="476.495" y2="130.01" gradientUnits="userSpaceOnUse">
<stop stop-color="white"/>
<stop offset="0.453125" stop-color="white" stop-opacity="0"/>
</linearGradient>
<linearGradient id="paint11_linear_2574_10342" x1="575" y1="1" x2="575" y2="130.01" gradientUnits="userSpaceOnUse">
<stop stop-color="white"/>
<stop offset="0.453125" stop-color="white" stop-opacity="0"/>
</linearGradient>
</defs>
</svg>
