<svg
  width="30"
  height="30"
  viewBox="0 0 30 30"
  fill="none"
  xmlns="http://www.w3.org/2000/svg"
>
  <path
    d="M24 30.0002H6C2.688 30.0002 0 27.3122 0 24.0002V6.00024C0 2.68824 2.688 0.000244141 6 0.000244141H24C27.312 0.000244141 30 2.68824 30 6.00024V24.0002C30 27.3122 27.318 30.0002 24 30.0002Z"
    fill="#ffffff4d"></path>

  <path
    d="M25.488 10.1822C25.488 9.59418 25.434 9.00618 25.356 8.42418C25.248 7.56618 25.02 6.73818 24.462 6.05418C23.76 5.18418 22.872 4.64418 21.714 4.64418C20.802 4.63818 19.89 4.63818 18.978 4.63818C15.408 4.63818 11.832 4.63818 8.256 4.64418C8.052 4.64418 7.842 4.63818 7.644 4.69218C6.222 5.07618 5.286 5.97018 4.854 7.39218C4.584 8.28018 4.506 9.19218 4.5 10.1042C4.494 13.4882 4.512 16.8722 4.524 20.2562C4.53 20.9222 4.638 21.5822 4.818 22.2242C5.256 23.8142 6.31199 24.7442 7.89599 25.1102C8.73599 25.3082 9.58799 25.3562 10.446 25.3622C11.964 25.3682 13.482 25.3622 15 25.3622V25.3322C16.818 25.3322 18.636 25.3442 20.448 25.3322C21.102 25.3262 21.738 25.2182 22.368 25.0382C23.802 24.6362 24.732 23.7302 25.158 22.2962C25.422 21.3902 25.494 20.4662 25.494 19.5302C25.506 16.4162 25.506 13.3022 25.488 10.1822ZM19.11 8.23218L19.098 8.30418C18.96 9.54618 18.36 10.5362 17.328 11.2562C16.68 11.7002 16.116 11.8862 15.102 11.9822H15.03C13.872 11.9822 12.84 11.5502 12.042 10.7222C11.304 9.96618 10.908 9.04818 10.872 8.01018C10.866 7.72218 10.98 7.53618 11.076 7.43418C11.22 7.28418 11.412 7.21218 11.652 7.21218H11.682C11.994 7.21218 12.576 7.21218 12.624 7.98618L12.63 8.10618C12.69 8.71818 12.96 9.23418 13.422 9.63618C13.872 10.0262 14.418 10.2362 14.994 10.2362C16.044 10.2362 16.962 9.55218 17.274 8.54418C17.322 8.39418 17.34 8.21418 17.358 8.02218L17.364 7.93818C17.424 7.40418 17.802 7.21218 18.156 7.21218H18.282C18.48 7.21218 18.744 7.21218 18.954 7.45218C19.17 7.69218 19.14 7.96818 19.11 8.23218Z"
    fill="#1C1D2B"></path>
</svg>