<svg
  width="30"
  height="30"
  viewBox="0 0 30 30"
  fill="none"
  xmlns="http://www.w3.org/2000/svg"
>
  <path
    d="M24.0061 30.0002H6.0061C2.6941 30.0002 0.00610352 27.3122 0.00610352 24.0002V6.00024C0.00610352 2.68824 2.6941 0.000244141 6.0061 0.000244141H24.0061C27.3181 0.000244141 30.0061 2.68824 30.0061 6.00024V24.0002C30.0061 27.3122 27.3181 30.0002 24.0061 30.0002Z"
    fill="#ffffff4d"></path>

  <path
    d="M16.7461 25.4822C16.7461 18.4982 16.7461 11.5202 16.7461 4.53024C16.8001 4.52424 16.8541 4.50624 16.9021 4.50624C18.0481 4.50624 19.2001 4.48824 20.3461 4.51224C22.8721 4.56624 25.0981 6.54624 25.4281 9.04824C25.5181 9.74424 25.4941 10.4522 25.5001 11.1602C25.5061 14.1542 25.5181 17.1482 25.4941 20.1362C25.4761 22.6862 23.8021 24.7742 21.3421 25.3442C20.9101 25.4462 20.4481 25.4762 20.0041 25.4822C18.9781 25.5002 17.9521 25.4882 16.9321 25.4882C16.8721 25.4942 16.8181 25.4882 16.7461 25.4822ZM23.0041 16.0442C22.9981 14.8802 22.0621 13.9562 20.8981 13.9622C19.7161 13.9682 18.7681 14.8922 18.7681 16.0502C18.7681 17.2142 19.7221 18.1502 20.9161 18.1502C22.0741 18.1442 23.0101 17.1962 23.0041 16.0442Z"
    fill="#1C1D2B"></path>
  <path
    d="M14.6281 25.4942C14.3461 25.4942 14.0761 25.4942 13.8061 25.4942C12.4381 25.4942 11.0701 25.5062 9.69612 25.4882C7.15212 25.4522 4.90212 23.4602 4.57812 20.9342C4.49412 20.2742 4.51211 19.5902 4.51211 18.9242C4.50611 15.8522 4.49411 12.7742 4.51811 9.70224C4.53611 7.17024 6.52811 4.93224 9.03611 4.57224C9.39011 4.52424 9.75611 4.51224 10.1161 4.50624C11.5501 4.50024 12.9841 4.50024 14.4181 4.50024C14.4841 4.50024 14.5441 4.50624 14.6221 4.51224C14.6281 11.5082 14.6281 18.4922 14.6281 25.4942ZM12.9241 23.7662C12.9241 17.9222 12.9241 12.0662 12.9241 6.21024C11.8021 6.21024 10.7041 6.14424 9.61211 6.22224C7.61411 6.36624 6.19811 7.95024 6.19811 9.94824C6.19211 13.3502 6.19211 16.7522 6.19811 20.1542C6.20411 21.9302 7.54811 23.5502 9.30011 23.7362C10.4881 23.8682 11.7061 23.7662 12.9241 23.7662Z"
    fill="#1C1D2B"></path>
  <path
    d="M11.7121 10.8062C11.7061 11.9042 10.8301 12.7742 9.74412 12.7742C8.65212 12.7742 7.77011 11.8802 7.77011 10.7762C7.77611 9.6962 8.67012 8.8202 9.76212 8.8262C10.8601 8.8382 11.7181 9.7082 11.7121 10.8062Z"
    fill="#1C1D2B"></path>
</svg>