<svg
  width="30"
  height="30"
  viewBox="0 0 30 30"
  fill="none"
  xmlns="http://www.w3.org/2000/svg"
>
  <path
    d="M24 30.0002H6C2.688 30.0002 0 27.3122 0 24.0002V6.00024C0 2.68824 2.688 0.000244141 6 0.000244141H24C27.312 0.000244141 30 2.68824 30 6.00024V24.0002C30 27.3122 27.312 30.0002 24 30.0002Z"
    fill="#ffffff4d"></path>

  <path
    d="M13.44 11.5022C13.584 12.1802 13.866 12.9362 13.878 13.6922C13.926 17.0042 13.902 20.3102 13.896 23.6222C13.89 25.1102 13.092 25.7582 11.652 25.4102C9.63599 24.9242 7.62 24.4202 5.61 23.8982C4.476 23.6042 3.97199 22.9862 3.96599 21.7982C3.94799 18.2702 3.94199 14.7362 3.96599 11.2082C3.97199 9.92421 4.85399 9.27621 6.13199 9.57021C7.37999 9.85821 8.62199 10.1882 10.038 10.5482C10.038 9.95421 10.032 9.46821 10.038 8.98221C10.05 7.37421 10.836 6.75621 12.408 7.12821C13.596 7.41021 14.778 7.71621 16.116 8.05221C16.116 7.35021 16.098 6.73221 16.122 6.12021C16.164 4.98021 16.968 4.30821 18.084 4.56021C20.262 5.05821 22.428 5.59821 24.588 6.16821C25.458 6.39621 26.028 7.00821 26.034 7.93821C26.064 11.6282 26.076 15.3122 26.046 19.0022C26.04 20.0342 25.212 20.6582 24.174 20.4902C23.43 20.3702 22.656 20.2382 21.99 19.9202C21.654 19.7582 21.36 19.1702 21.342 18.7622C21.204 16.2782 21.156 13.7882 21.072 11.2982C21.03 10.0742 20.466 9.28821 19.614 9.04221C19.734 9.85821 19.956 10.7462 19.968 11.6342C20.01 14.7842 19.992 17.9402 19.986 21.0902C19.98 22.6262 19.158 23.3102 17.67 22.9082C14.922 22.1582 15.312 22.8542 15.21 19.8842C15.138 17.8382 15.09 15.7922 15.012 13.7402C14.946 12.4922 14.25 11.6282 13.44 11.5022Z"
    fill="#1C1D2B"></path>
</svg>
