<svg width="190" height="111" viewBox="0 0 190 111" fill="none" xmlns="http://www.w3.org/2000/svg">
<g id="Union">
<mask id="path-1-inside-1_2129_2928" fill="white">
<path fill-rule="evenodd" clip-rule="evenodd" d="M85 111H0V23.0952H85.2148L108.31 0H190V87.69L166.69 111H119.983H85Z"/>
</mask>
<path d="M0 111H-1V112H0V111ZM0 23.0952V22.0952H-1V23.0952H0ZM85.2148 23.0952V24.0952H85.629L85.9219 23.8023L85.2148 23.0952ZM108.31 0V-1H107.896L107.603 -0.707107L108.31 0ZM190 0H191V-1H190V0ZM190 87.69L190.707 88.3971L191 88.1042V87.69H190ZM166.69 111V112H167.104L167.397 111.707L166.69 111ZM0 112H85V110H0V112ZM-1 23.0952V111H1V23.0952H-1ZM85.2148 22.0952H0V24.0952H85.2148V22.0952ZM85.9219 23.8023L109.017 0.707107L107.603 -0.707107L84.5077 22.3881L85.9219 23.8023ZM108.31 1H190V-1H108.31V1ZM189 0V87.69H191V0H189ZM189.293 86.9829L165.983 110.293L167.397 111.707L190.707 88.3971L189.293 86.9829ZM166.69 110H119.983V112H166.69V110ZM85 112H119.983V110H85V112Z" fill="#8C8C8C" mask="url(#path-1-inside-1_2129_2928)"/>
</g>
</svg>
