<svg
  width="30"
  height="30"
  viewBox="0 0 30 30"
  fill="none"
  xmlns="http://www.w3.org/2000/svg"
>
  <path
    d="M24.0061 30.0002H6.0061C2.6941 30.0002 0.00610352 27.3122 0.00610352 24.0002V6.00024C0.00610352 2.68824 2.6941 0.000244141 6.0061 0.000244141H24.0061C27.3181 0.000244141 30.0061 2.68824 30.0061 6.00024V24.0002C30.0061 27.3122 27.3181 30.0002 24.0061 30.0002Z"
    fill="#ffffff4d"></path>

  <path
    d="M25.5061 12.1083C25.4161 13.7163 24.7381 14.9103 23.2681 15.5883C23.1661 15.6363 23.0701 15.7023 22.9861 15.7803C22.2961 16.3983 21.6061 17.0223 20.9221 17.6523C20.8561 17.7183 20.8021 17.8503 20.8141 17.9403C21.0241 19.4763 19.9621 21.0903 18.4861 21.4623C16.9861 21.8463 15.4201 21.0363 14.8861 19.5363C14.7301 19.0983 14.4901 18.9123 14.0821 18.7683C12.4141 18.1923 10.7581 17.5863 9.09609 16.9863C8.95809 16.9383 8.86211 16.9383 8.73611 17.0283C7.17611 18.1143 5.0581 17.2683 4.6021 15.3423C4.3021 14.0823 4.66211 12.9963 5.71811 12.2223C7.20611 11.1243 9.30609 11.9103 9.84609 13.7463C9.89409 13.9143 9.97809 13.9923 10.1281 14.0463C11.8501 14.6583 13.5661 15.2763 15.2881 15.9003C15.4441 15.9543 15.5521 15.9543 15.6841 15.8283C16.1761 15.3543 16.7761 15.0843 17.4601 15.0243C17.6221 15.0123 17.6821 14.9523 17.7301 14.7963C17.9461 14.0703 18.1861 13.3503 18.4021 12.6183C18.4681 12.4023 18.4981 12.1683 18.5041 11.9463C18.5701 10.0263 20.1901 8.27429 22.3141 8.45429C23.7661 8.58029 25.1401 9.83429 25.4041 11.3223C25.4461 11.5923 25.4701 11.8623 25.5061 12.1083ZM22.0561 14.7603C22.2121 14.7303 22.4521 14.7123 22.6741 14.6343C24.4261 14.0643 25.0141 11.8443 23.7961 10.4043C22.8961 9.33629 21.3121 9.26429 20.3161 10.2423C19.5121 11.0343 19.2841 12.2643 19.7761 13.2963C20.2141 14.2083 20.9521 14.7003 22.0561 14.7603ZM17.3581 16.4643C17.6101 16.5603 17.8621 16.6623 18.1201 16.7403C18.7501 16.9383 19.0801 17.3823 19.1761 18.0063C19.2661 18.5943 19.0801 19.1163 18.6181 19.5003C18.1801 19.8603 17.6881 19.9383 17.1541 19.7343C16.7521 19.5783 16.3441 19.4283 15.9421 19.2843C15.8941 19.2663 15.8341 19.2663 15.7681 19.2603C16.1161 20.3763 17.2021 20.9763 18.2821 20.6763C19.3381 20.3823 20.0041 19.1703 19.7281 18.0363C19.4521 16.9143 18.4081 16.2003 17.3581 16.4643ZM8.9401 13.6203C8.4661 12.6783 7.3321 12.3243 6.4381 12.7923C5.4601 13.3083 5.08209 14.5863 5.61009 15.5883C6.04809 16.4103 7.0981 16.8723 7.7581 16.5123C7.5721 16.4463 7.4041 16.3623 7.2301 16.3203C6.4921 16.1523 5.9581 15.2283 6.2041 14.3523C6.4621 13.4403 7.4101 12.9783 8.2801 13.3563C8.4841 13.4523 8.6881 13.5243 8.9401 13.6203Z"
    fill="#1C1D2B"></path>
  <path
    d="M23.7121 12.1563C23.7121 13.1883 22.9621 13.9923 21.9901 13.9923C21.0061 13.9983 20.2321 13.1823 20.2381 12.1503C20.2441 11.1363 21.0241 10.3143 21.9781 10.3143C22.9441 10.3203 23.7121 11.1363 23.7121 12.1563Z"
    fill="#1C1D2B"></path>
</svg>