<svg width="353" height="329" viewBox="0 0 353 329" fill="none" xmlns="http://www.w3.org/2000/svg">
<rect x="181" y="23" width="75" height="12" fill="white" fill-opacity="0.08"/>
<rect x="44" y="99" width="75" height="12" fill="white" fill-opacity="0.08"/>
<rect x="277" y="43" width="20" height="12" fill="white" fill-opacity="0.08"/>
<rect x="99" y="65" width="20" height="12" fill="white" fill-opacity="0.08"/>
<rect x="192" y="153" width="20" height="12" fill="white" fill-opacity="0.08"/>
<rect x="85" y="201" width="20" height="12" fill="white" fill-opacity="0.08"/>
<rect x="8" y="236" width="20" height="12" fill="white" fill-opacity="0.08"/>
<rect x="177" y="122" width="69" height="8" fill="white" fill-opacity="0.08"/>
<rect x="18" y="227" width="69" height="8" fill="white" fill-opacity="0.08"/>
<rect x="150" y="68" width="138" height="3" fill="white" fill-opacity="0.08"/>
<rect x="61" y="176" width="138" height="3" fill="white" fill-opacity="0.08"/>
<rect x="19" y="70" width="49" height="3" fill="white" fill-opacity="0.08"/>
<rect x="304" width="49" height="3" fill="white" fill-opacity="0.08"/>
<rect x="105" y="123" width="49" height="3" fill="white" fill-opacity="0.08"/>
<rect x="19" y="297" width="49" height="2" fill="white" fill-opacity="0.08"/>
<rect x="7" y="327" width="29" height="2" fill="white" fill-opacity="0.08"/>
<rect x="2" y="177" width="49" height="3" fill="white" fill-opacity="0.08"/>
<rect x="122" y="204" width="49" height="3" fill="white" fill-opacity="0.08"/>
<rect x="44" y="261" width="73" height="3" fill="white" fill-opacity="0.08"/>
</svg>
